<?xml version="1.0" standalone="no"?>
<!DOCTYPE svg PUBLIC "-//W3C//DTD SVG 20010904//EN"
 "http://www.w3.org/TR/2001/REC-SVG-20010904/DTD/svg10.dtd">
<svg version="1.0" xmlns="http://www.w3.org/2000/svg"
 width="400.000000pt" height="400.000000pt" viewBox="0 0 400.000000 400.000000"
 preserveAspectRatio="xMidYMid meet">
<metadata>
Created by potrace 1.14, written by Peter Selinger 2001-2017
</metadata>
<g transform="translate(0.000000,400.000000) scale(0.100000,-0.100000)"
fill="#000000" stroke="none">
<path d="M1820 3884 c-254 -29 -468 -92 -674 -197 -651 -332 -1053 -1007
-1031 -1727 11 -341 94 -634 258 -911 281 -476 733 -792 1292 -905 130 -26
540 -26 670 0 559 113 1011 429 1292 905 256 432 326 961 193 1455 -96 358
-319 706 -605 945 -262 218 -555 354 -900 417 -77 15 -420 27 -495 18z m470
-80 c701 -115 1277 -630 1464 -1309 55 -200 61 -245 60 -495 0 -217 -3 -244
-27 -356 -109 -491 -376 -889 -777 -1156 -199 -132 -418 -223 -665 -274 -118
-25 -150 -27 -345 -27 -195 0 -227 2 -345 27 -247 51 -466 142 -665 274 -401
267 -668 665 -777 1156 -24 112 -27 139 -27 356 -1 250 5 295 60 495 198 722
840 1257 1589 1325 119 11 337 3 455 -16z"/>
<path d="M2126 3153 c5 -22 66 -356 100 -548 51 -290 67 -377 108 -605 20
-107 47 -258 61 -335 14 -77 50 -276 80 -443 30 -167 55 -308 55 -315 0 -17
15 1 43 53 81 148 623 1132 643 1167 l24 41 -138 123 c-75 68 -157 142 -182
165 -25 23 -166 151 -315 285 -148 134 -316 285 -372 336 -56 51 -104 93 -107
93 -2 0 -2 -8 0 -17z m464 -533 c425 -375 535 -474 537 -479 3 -6 -506 -943
-529 -974 -12 -16 -18 8 -51 190 -21 114 -42 231 -47 258 -6 28 -17 88 -25
135 -35 197 -95 529 -105 575 -5 28 -21 113 -34 190 -14 77 -32 178 -40 225
-9 47 -19 103 -22 125 l-7 40 29 -26 c16 -14 148 -131 294 -259z"/>
<path d="M1941 3046 c-22 -36 -74 -116 -114 -178 -73 -112 -470 -725 -600
-928 -38 -58 -157 -243 -267 -412 l-199 -308 37 -9 c20 -5 118 -28 217 -51
191 -45 429 -101 635 -150 69 -17 190 -45 270 -64 80 -19 201 -48 270 -65 69
-16 142 -33 164 -37 l38 -7 -7 44 c-6 44 -26 154 -84 474 -17 94 -47 260 -66
370 -20 110 -47 263 -61 340 -14 77 -29 163 -34 190 -5 28 -20 115 -34 195
-14 80 -35 195 -46 255 -11 61 -31 175 -45 255 -14 79 -27 146 -29 148 -2 1
-22 -26 -45 -62z m15 -341 c8 -49 19 -110 24 -135 14 -72 90 -497 166 -925 29
-165 37 -211 58 -327 9 -49 23 -125 31 -171 8 -45 18 -103 23 -129 5 -26 7
-49 5 -52 -2 -2 -18 0 -36 4 -49 12 -268 64 -507 120 -118 27 -291 68 -385 90
-93 22 -222 52 -285 67 -63 14 -117 27 -119 29 -2 2 28 52 66 111 39 59 243
376 455 703 211 327 406 629 433 670 37 56 50 70 52 55 2 -11 10 -60 19 -110z"/>
</g>
</svg>
